<svg xmlns="http://www.w3.org/2000/svg" width="22" height="21" viewBox="0 0 22 21" fill="none">
  <g clip-path="url(#clip0_436_11027)">
    <mask id="mask0_436_11027" style="mask-type:luminance" maskUnits="userSpaceOnUse" x="0" y="0" width="22" height="21">
      <path d="M0.94873 0.0546265H21.1168V20.2227H0.94873V0.0546265Z" fill="white"/>
    </mask>
    <g mask="url(#mask0_436_11027)">
      <mask id="mask1_436_11027" style="mask-type:luminance" maskUnits="userSpaceOnUse" x="0" y="0" width="22" height="21">
        <path d="M0.94873 0.0546265H21.1168V20.2227H0.94873V0.0546265Z" fill="white"/>
      </mask>
      <g mask="url(#mask1_436_11027)">
        <path d="M2.20947 5.09666C2.20947 3.70435 3.33817 2.57565 4.73048 2.57565H17.3355C18.7279 2.57565 19.8565 3.70435 19.8565 5.09666V15.1807C19.8565 16.573 18.7279 17.7017 17.3355 17.7017H4.73048C3.33817 17.7017 2.20947 16.573 2.20947 15.1807V5.09666ZM4.73048 3.83616C4.03432 3.83616 3.46998 4.4005 3.46998 5.09666V15.1807C3.46998 15.8768 4.03432 16.4412 4.73048 16.4412H17.3355C18.0317 16.4412 18.596 15.8768 18.596 15.1807V5.09666C18.596 4.4005 18.0317 3.83616 17.3355 3.83616H4.73048Z" fill="#757575"/>
        <path d="M14.1842 5.09665C14.4404 5.09665 14.6858 5.14626 14.9204 5.24549C15.1467 5.3412 15.3469 5.47618 15.5212 5.65044C15.6954 5.82469 15.8304 6.02496 15.9261 6.25124C16.0254 6.48585 16.075 6.73124 16.075 6.98741C16.075 7.24357 16.0254 7.48896 15.9261 7.72356C15.8304 7.94985 15.6954 8.15012 15.5212 8.32437C15.3469 8.49862 15.1467 8.63361 14.9204 8.72932C14.6858 8.82855 14.4404 8.87816 14.1842 8.87816C13.928 8.87816 13.6827 8.82855 13.4481 8.72932C13.2218 8.63361 13.0215 8.49862 12.8472 8.32437C12.673 8.15012 12.538 7.94985 12.4423 7.72356C12.3431 7.48896 12.2935 7.24357 12.2935 6.98741C12.2935 6.73124 12.3431 6.48585 12.4423 6.25124C12.538 6.02496 12.673 5.82469 12.8472 5.65044C13.0215 5.47618 13.2218 5.3412 13.4481 5.24549C13.6827 5.14626 13.928 5.09665 14.1842 5.09665ZM14.1842 6.35715C14.0102 6.35715 13.8616 6.41869 13.7386 6.54175C13.6155 6.66481 13.554 6.81337 13.554 6.98741C13.554 7.16144 13.6155 7.31 13.7386 7.43306C13.8616 7.55613 14.0102 7.61766 14.1842 7.61766C14.3583 7.61766 14.5068 7.55613 14.6299 7.43306C14.7529 7.31 14.8145 7.16144 14.8145 6.98741C14.8145 6.81337 14.7529 6.66481 14.6299 6.54175C14.5068 6.41869 14.3583 6.35715 14.1842 6.35715Z" fill="#757575"/>
        <path fill-rule="evenodd" clip-rule="evenodd" d="M12.3516 13.601L8.90736 10.1632C8.78918 10.0451 8.64675 9.98355 8.48006 9.97861C8.31336 9.97367 8.16766 10.0266 8.04296 10.1373L3.2585 14.3912C2.99838 14.6225 2.60001 14.5991 2.36872 14.3389C2.13744 14.0788 2.16083 13.6804 2.42096 13.4492L7.20609 9.19466C7.58022 8.86251 8.01732 8.70384 8.51739 8.71866C9.01747 8.73348 9.44428 8.91763 9.79783 9.2711L13.2429 12.7097L14.1853 11.7673C14.5304 11.4215 14.9471 11.2373 15.4355 11.2147C15.9239 11.192 16.3561 11.337 16.7321 11.6496L19.63 14.0664C19.8973 14.2893 19.9333 14.6868 19.7103 14.9541C19.4874 15.2214 19.0899 15.2574 18.8226 15.0344L15.9261 12.6188C15.8008 12.5146 15.6567 12.4663 15.4939 12.4738C15.3311 12.4814 15.192 12.543 15.0766 12.6586L10.2182 17.5171C9.97203 17.7632 9.57297 17.7632 9.32685 17.5171C9.08072 17.271 9.08072 16.8719 9.32685 16.6258L12.3516 13.601Z" fill="#757575"/>
      </g>
    </g>
  </g>
  <defs>
    <clipPath id="clip0_436_11027">
      <rect width="20.1681" height="20.1681" fill="white" transform="translate(0.94873 0.0546265)"/>
    </clipPath>
  </defs>
</svg>