<svg xmlns="http://www.w3.org/2000/svg" width="28" height="28" viewBox="0 0 28 28" fill="none">
<path d="M9.83342 15.05L9.83342 19.95C9.83342 21.9424 10.2349 23.207 11.0141 23.9861C11.7932 24.7652 13.0577 25.1667 15.0501 25.1667L19.9501 25.1667C21.9424 25.1667 23.207 24.7652 23.9861 23.9861C24.7652 23.207 25.1667 21.9424 25.1667 19.95L25.1667 15.05C25.1667 13.0577 24.7652 11.7931 23.9861 11.014C23.207 10.2349 21.9424 9.83337 19.9501 9.83337L15.0501 9.83337C13.0577 9.83338 11.7932 10.2349 11.0141 11.014C10.2349 11.7931 9.83342 13.0577 9.83342 15.05Z" fill="#315215" stroke="#315215"/>
<path d="M12.95 2.83337L8.05003 2.83337C6.05768 2.83338 4.7931 3.23491 4.014 4.01401C3.23489 4.79312 2.83336 6.05769 2.83336 8.05004L2.83336 12.95C2.83336 14.735 3.15849 15.9349 3.78659 16.722C4.40324 17.4947 5.38454 17.9582 6.91204 18.1053C7.14322 18.1276 7.37503 17.9354 7.37503 17.6431L7.37503 15.05C7.37503 12.5323 7.95885 10.5841 9.27148 9.27149C10.5841 7.95886 12.5323 7.37504 15.05 7.37504L17.6431 7.37504C17.9354 7.37504 18.1276 7.14323 18.1053 6.91205C17.9582 5.38455 17.4947 4.40325 16.7219 3.7866C15.9349 3.1585 14.735 2.83337 12.95 2.83337Z" fill="#315215" stroke="#315215"/>
</svg>