<svg xmlns="http://www.w3.org/2000/svg" width="32" height="32" viewBox="0 0 32 32" fill="none">
<path d="M28 7.97331C23.56 7.53331 19.0933 7.30664 14.64 7.30664C12 7.30664 9.36 7.43997 6.72 7.70664L4 7.97331" stroke="#DC2626" stroke-width="1.5" stroke-linecap="round" stroke-linejoin="round"/>
<path d="M11.334 6.62602L11.6273 4.87935C11.8407 3.61268 12.0007 2.66602 14.254 2.66602H17.7473C20.0007 2.66602 20.174 3.66602 20.374 4.89268L20.6673 6.62602" stroke="#DC2626" stroke-width="1.5" stroke-linecap="round" stroke-linejoin="round"/>
<path d="M25.1339 12.1875L24.2672 25.6142C24.1205 27.7075 24.0005 29.3342 20.2805 29.3342H11.7205C8.00052 29.3342 7.88052 27.7075 7.73385 25.6142L6.86719 12.1875" stroke="#DC2626" stroke-width="1.5" stroke-linecap="round" stroke-linejoin="round"/>
<path d="M13.7734 22H18.2134" stroke="#DC2626" stroke-width="1.5" stroke-linecap="round" stroke-linejoin="round"/>
<path d="M12.666 16.666H19.3327" stroke="#DC2626" stroke-width="1.5" stroke-linecap="round" stroke-linejoin="round"/>
</svg>