<svg xmlns="http://www.w3.org/2000/svg" width="28" height="28" viewBox="0 0 28 28" fill="none">
<path d="M16.9049 17.6851L16.9049 17.6851L16.9134 17.685L18.9668 17.65L18.9803 17.6498L18.9939 17.6488C19.3717 17.6218 19.7023 17.3513 19.7855 16.9632L19.7871 16.9559L19.7884 16.9485L20.1967 14.7202L20.1968 14.7202L20.1981 14.7123C20.2838 14.198 19.8861 13.7217 19.3549 13.7217L19.3549 13.7217L19.3479 13.7218L16.8678 13.7567C16.8165 13.7557 16.778 13.718 16.7747 13.6695L16.7307 10.9742L19.3832 10.93C19.8553 10.9274 20.2283 10.5529 20.2283 10.0801L20.2283 10.0801L20.2282 10.0717L20.1816 7.27496C20.1789 6.80288 19.8044 6.43004 19.3316 6.43004L19.3316 6.42999L19.3242 6.4301L16.1742 6.47677L16.1725 6.4768C13.9616 6.51676 12.2 8.32948 12.24 10.5441L12.24 10.5441L12.2983 13.7525L12.2983 13.7525L12.2986 13.7612C12.2994 13.784 12.2923 13.7986 12.2809 13.8104C12.2685 13.8231 12.2461 13.8366 12.2118 13.8386L10.8216 13.8617C10.3495 13.8643 9.9766 14.2389 9.9766 14.7117L9.97653 14.7117L9.97666 14.7196L10.0116 16.9331C10.0141 17.4054 10.3887 17.7784 10.8616 17.7784L10.8616 17.7784L10.8699 17.7783L12.2641 17.7551C12.3152 17.7562 12.3535 17.7938 12.3568 17.8421L12.4616 24.4846L12.4616 24.4856C12.4683 24.8606 12.1674 25.1667 11.7949 25.1667L9.11158 25.1667C7.08769 25.1667 5.5325 24.5654 4.48369 23.5152C3.43481 22.465 2.83325 20.9068 2.83325 18.8767L2.83325 9.1117C2.83325 7.08781 3.4346 5.53247 4.48347 4.48359C5.53234 3.43472 7.08768 2.83337 9.11158 2.83337L18.8883 2.83338C20.9122 2.83338 22.4675 3.43472 23.5164 4.48359C24.5652 5.53247 25.1666 7.08781 25.1666 9.11171L25.1666 18.8884C25.1666 20.9123 24.5652 22.4676 23.5164 23.5165C22.4675 24.5654 20.9121 25.1667 18.8883 25.1667L17.4999 25.1667C17.1344 25.1667 16.8332 24.8656 16.8333 24.5L16.8333 17.7684C16.8333 17.7479 16.8418 17.7253 16.8594 17.7072C16.8764 17.6897 16.893 17.6851 16.9049 17.6851Z" fill="#315215" stroke="#315215"/>
</svg>