<svg xmlns="http://www.w3.org/2000/svg" width="24" height="25" viewBox="0 0 24 25" fill="none">
  <path d="M5.45533 8.57044V23.4198H0.300048V8.57044H5.45533ZM5.78309 3.98604C5.78404 4.01262 5.785 4.04378 5.785 4.07586C5.785 4.76232 5.48113 5.38005 4.9957 5.81265L4.99379 5.81357C4.473 6.26999 3.7764 6.54953 3.01099 6.54953C2.96417 6.54953 2.91639 6.54861 2.86957 6.54678H2.87625H2.84472C2.80554 6.54861 2.75967 6.54953 2.71381 6.54953C1.96464 6.54953 1.28428 6.26907 0.778786 5.81265L0.779742 5.81357C0.298137 5.36631 0 4.74124 0 4.04928C0 4.02728 -1.11243e-10 4.00528 0.000955566 3.98237V3.98604C-1.11243e-10 3.96679 0 3.94479 0 3.9228C0 3.22441 0.309603 2.59569 0.803631 2.15484L0.805542 2.15393C1.32537 1.70025 2.02007 1.42163 2.78165 1.42163C2.82561 1.42163 2.86861 1.42255 2.91257 1.42438H2.90683C2.94792 1.42255 2.99474 1.42163 3.04348 1.42163C3.7936 1.42163 4.47683 1.69933 4.9871 2.15301L4.98519 2.15118C5.4773 2.60668 5.78309 3.24458 5.78309 3.95121V3.9897V3.98787V3.98604ZM23.9981 14.9109V23.4198H18.8591V15.4782C18.8638 15.4058 18.8657 15.3215 18.8657 15.2372C18.8657 14.416 18.6278 13.6488 18.214 12.9945L18.2255 13.0137C17.8175 12.4675 17.1581 12.1164 16.4138 12.1164C16.3564 12.1164 16.2991 12.1183 16.2418 12.1228H16.2494C16.2236 12.1219 16.194 12.121 16.1644 12.121C15.5719 12.121 15.0272 12.3162 14.5963 12.6434L14.602 12.6398C14.1691 12.9761 13.8299 13.406 13.6159 13.9L13.6082 13.921C13.4974 14.2464 13.4343 14.6203 13.4343 15.0089C13.4343 15.0529 13.4353 15.0969 13.4372 15.1409V15.1345V23.4216H8.29814C8.31916 19.436 8.32967 16.2044 8.32967 13.7267C8.32967 11.2491 8.32457 9.77077 8.31438 9.29174L8.29909 8.57227H13.4381V10.7297H13.4066C13.6111 10.4135 13.8223 10.1395 14.0545 9.88289L14.0468 9.89114C14.3153 9.60793 14.6039 9.35223 14.9145 9.1231L14.9298 9.1121C15.3158 8.82706 15.7688 8.60343 16.2599 8.46687L16.2886 8.46046C16.8027 8.3129 17.3942 8.22766 18.0057 8.22766H18.0812H18.0774C18.1452 8.22491 18.2246 8.22308 18.3039 8.22308C19.9102 8.22308 21.3569 8.87747 22.3708 9.92413L22.3736 9.9278C23.4579 11.0618 24 12.7226 24 14.91L23.9981 14.9109Z" fill="#0A0915"/>
</svg>