<svg xmlns="http://www.w3.org/2000/svg" width="28" height="28" viewBox="0 0 28 28" fill="none">
<path d="M7.30636 11.579L7.30312 11.5764C6.71798 11.1009 6.62499 10.2308 7.09671 9.64294C7.56542 9.03214 8.44495 8.94956 9.02859 9.42214C9.02918 9.42262 9.02978 9.42311 9.03038 9.42359L12.6788 12.3376L12.6797 12.3384C13.0184 12.6102 13.4996 12.7621 14.0059 12.7621C14.5123 12.7621 14.9934 12.6102 15.3321 12.3384L15.333 12.3376L18.9833 9.42212C19.5816 8.93764 20.4417 9.06018 20.9098 9.63635L20.9099 9.63629L20.9158 9.64382C21.3736 10.2298 21.2838 11.0997 20.697 11.5764L20.6971 11.5764L20.6938 11.579L17.0441 14.4941C16.184 15.1945 15.0768 15.5266 14.0001 15.5266C12.9205 15.5266 11.8266 15.1929 10.9575 14.4952C10.9573 14.4951 10.9572 14.495 10.957 14.4948L7.30637 11.579L7.30636 11.579ZM19.8334 4.58331L8.16675 4.58331C6.49339 4.58331 5.17532 5.00173 4.27781 5.83513C3.38701 6.6623 2.83342 7.97028 2.83342 9.91665L2.83342 18.0833C2.83342 20.0297 3.38701 21.3377 4.27781 22.1648C5.17532 22.9982 6.4934 23.4166 8.16675 23.4166L19.8334 23.4166C21.5068 23.4166 22.8248 22.9982 23.7224 22.1648C24.6132 21.3377 25.1667 20.0297 25.1667 18.0833L25.1667 9.91665C25.1667 7.97028 24.6132 6.6623 23.7224 5.83513C22.8248 5.00172 21.5068 4.58331 19.8334 4.58331Z" fill="#315215" stroke="#315215"/>
</svg>