<svg xmlns="http://www.w3.org/2000/svg" width="24" height="25" viewBox="0 0 24 25" fill="none">
  <path opacity="0.4" d="M17.75 10.9216C20.0972 10.9216 22 9.01884 22 6.67163C22 4.32442 20.0972 2.42163 17.75 2.42163C15.4028 2.42163 13.5 4.32442 13.5 6.67163C13.5 9.01884 15.4028 10.9216 17.75 10.9216Z" stroke="#315215" stroke-width="1.5"/>
  <path d="M6.25 10.9216C8.59721 10.9216 10.5 9.01884 10.5 6.67163C10.5 4.32442 8.59721 2.42163 6.25 2.42163C3.90279 2.42163 2 4.32442 2 6.67163C2 9.01884 3.90279 10.9216 6.25 10.9216Z" stroke="#315215" stroke-width="1.5"/>
  <path d="M17.75 22.4216C20.0972 22.4216 22 20.5188 22 18.1716C22 15.8244 20.0972 13.9216 17.75 13.9216C15.4028 13.9216 13.5 15.8244 13.5 18.1716C13.5 20.5188 15.4028 22.4216 17.75 22.4216Z" stroke="#315215" stroke-width="1.5"/>
  <path d="M6.25 22.4216C8.59721 22.4216 10.5 20.5188 10.5 18.1716C10.5 15.8244 8.59721 13.9216 6.25 13.9216C3.90279 13.9216 2 15.8244 2 18.1716C2 20.5188 3.90279 22.4216 6.25 22.4216Z" stroke="#315215" stroke-width="1.5"/>
</svg>