<svg xmlns="http://www.w3.org/2000/svg" width="24" height="25" viewBox="0 0 24 25" fill="none">
  <path d="M14.1706 20.8121C18.3536 20.5341 21.6856 17.1548 21.9598 12.9125C22.0134 12.0823 22.0134 11.2225 21.9598 10.3923C21.6856 6.15001 18.3536 2.77076 14.1706 2.4927C12.7435 2.39784 11.2536 2.39804 9.8294 2.4927C5.64639 2.77076 2.31441 6.15001 2.04024 10.3923C1.98659 11.2225 1.98659 12.0823 2.04024 12.9125C2.1401 14.4576 2.82343 15.8882 3.62791 17.0962C4.09501 17.9419 3.78674 18.9974 3.30021 19.9194C2.94941 20.5842 2.77401 20.9166 2.91484 21.1567C3.05568 21.3968 3.37026 21.4045 3.99943 21.4198C5.24367 21.4501 6.08268 21.0973 6.74868 20.6062C7.1264 20.3277 7.31527 20.1884 7.44544 20.1724C7.5756 20.1564 7.83177 20.2619 8.34401 20.4729C8.8044 20.6625 9.33896 20.7795 9.8294 20.8121C11.2536 20.9068 12.7435 20.907 14.1706 20.8121Z" stroke="#757575" stroke-width="1.5" stroke-linejoin="round"/>
  <path d="M8.5 14.4216H15.5M8.5 9.42163H12" stroke="#757575" stroke-width="1.5" stroke-linecap="round" stroke-linejoin="round"/>
</svg>