<svg xmlns="http://www.w3.org/2000/svg" width="24" height="25" viewBox="0 0 24 25" fill="none">
  <path d="M2.52992 14.8156C2.31727 16.1687 3.268 17.1078 4.43205 17.5758C8.89481 19.3702 15.1052 19.3702 19.5679 17.5758C20.732 17.1078 21.6827 16.1687 21.4701 14.8156C21.3394 13.9841 20.6932 13.2917 20.2144 12.6156C19.5873 11.7191 19.525 10.7413 19.5249 9.70104C19.5249 5.68073 16.1559 2.42163 12 2.42163C7.84413 2.42163 4.47513 5.68073 4.47513 9.70104C4.47503 10.7413 4.41272 11.7191 3.78561 12.6156C3.30684 13.2917 2.66061 13.9841 2.52992 14.8156Z" stroke="#757575" stroke-width="1.5" stroke-linecap="round" stroke-linejoin="round"/>
  <path d="M9 21.4216C9.79613 22.0435 10.8475 22.4216 12 22.4216C13.1525 22.4216 14.2039 22.0435 15 21.4216" stroke="#757575" stroke-width="1.5" stroke-linecap="round" stroke-linejoin="round"/>
</svg>