<svg xmlns="http://www.w3.org/2000/svg" width="28" height="28" viewBox="0 0 28 28" fill="none">
<path d="M22.4361 24.7824L22.436 24.7824L22.4387 24.7814C23.0777 24.53 23.6704 24.1301 24.2064 23.5619L24.2063 23.5618L24.2138 23.5543C24.8745 22.8831 25.1667 22.1871 25.1667 21.4784C25.1667 21.2217 25.1115 20.9696 25.006 20.7497L25.0059 20.7497L25.0028 20.7429C24.8971 20.5138 24.7427 20.3178 24.5188 20.1628L24.5188 20.1628L24.5141 20.1595L20.6991 17.4528L20.6991 17.4528L20.6963 17.4508C20.4298 17.2589 20.1957 17.1284 19.9824 17.0411L19.9824 17.0412L19.9748 17.0379C19.7753 16.9524 19.5979 16.915 19.4601 16.915C19.2807 16.915 19.0897 16.9666 18.8917 17.0871L18.8848 17.0913L18.8778 17.0953C18.6588 17.219 18.4143 17.4096 18.157 17.6669L18.157 17.667L18.1501 17.6737L17.2314 18.5574C17.0023 18.7846 16.7213 18.8867 16.4151 18.8867C16.2744 18.8867 16.1516 18.8683 16.0255 18.8368L15.9979 18.8299L15.9712 18.8199C15.918 18.7999 15.8709 18.7799 15.8363 18.7653C15.8329 18.7638 15.8296 18.7625 15.8265 18.7611C15.7873 18.7445 15.7692 18.7373 15.7553 18.7327L15.7131 18.7186L15.674 18.6973C15.2457 18.4637 14.7142 18.0772 14.0971 17.555L14.0971 17.5551L14.0929 17.5514C13.4803 17.0214 12.854 16.4542 12.2266 15.8386L12.2266 15.8386L12.2232 15.8352C12.1605 15.7726 12.0987 15.7076 12.0417 15.6478L12.0397 15.6457C11.9806 15.5836 11.9265 15.5269 11.8732 15.4736L11.8732 15.4736L11.8687 15.4691C11.606 15.1996 11.1794 15.1945 10.912 15.4619L8.75364 17.6202C8.49678 17.8771 8.48932 18.2879 8.74716 18.5633C8.81356 18.6299 8.87647 18.6958 8.93513 18.7572L8.93676 18.7589C8.99831 18.8234 9.05536 18.8832 9.11445 18.9423C10.3099 20.1262 11.5618 21.1941 12.8699 22.1466C14.1742 23.0847 15.4708 23.8343 16.7481 24.3771C18.0293 24.905 19.2352 25.1667 20.3701 25.1667C21.1042 25.1667 21.799 25.0373 22.4361 24.7824Z" fill="#315215" stroke="#315215"/>
<path d="M5.56706 3.1072L5.56711 3.10732L5.55695 3.11211C5.17896 3.29061 4.82401 3.5204 4.48921 3.82381C3.92665 4.33434 3.52618 4.88461 3.26512 5.49494L3.26512 5.49946L3.22827 5.59005C2.97268 6.21838 2.83345 6.90105 2.83345 7.64165C2.83345 8.75259 3.09483 9.95753 3.6451 11.249C4.20015 12.5517 4.95008 13.8599 5.89786 15.162C6.1242 15.4664 6.34609 15.7647 6.57272 16.0536L9.6954 12.9309C9.55529 12.7242 9.43826 12.5307 9.34554 12.3537L9.33369 12.331L9.32421 12.3074C9.31785 12.2914 9.30841 12.2703 9.29163 12.2337L9.28748 12.2247C9.27281 12.1927 9.25421 12.1522 9.23554 12.1086L9.231 12.098L9.22695 12.0872C9.16455 11.9208 9.14845 11.7637 9.14845 11.62C9.14845 11.2826 9.27575 11.0062 9.4919 10.7894L10.3659 9.90378L10.3659 9.90378L10.3682 9.90143C10.6397 9.62999 10.8238 9.39074 10.9318 9.1837L10.9394 9.16909L10.948 9.15501C11.0696 8.95521 11.1201 8.77579 11.1201 8.58666C11.1201 8.43827 11.0895 8.26913 11.0057 8.06431L11.4658 7.87608L11.0057 8.0643C10.9183 7.8507 10.787 7.61495 10.6028 7.34358L7.86409 3.48611L7.86406 3.48613L7.86069 3.48126C7.69731 3.24526 7.52324 3.1021 7.3311 3.01591C7.08828 2.91965 6.86237 2.86832 6.61512 2.86832C6.34837 2.86832 6.06812 2.9159 5.79516 3.01293C5.70056 3.04842 5.6324 3.07453 5.56706 3.1072Z" fill="#315215" stroke="#315215"/>
</svg>