<svg xmlns="http://www.w3.org/2000/svg" width="24" height="25" viewBox="0 0 24 25" fill="none">
  <path d="M15.5 12.4216C15.5 14.3546 13.933 15.9216 12 15.9216C10.067 15.9216 8.5 14.3546 8.5 12.4216C8.5 10.4886 10.067 8.92163 12 8.92163C13.933 8.92163 15.5 10.4886 15.5 12.4216Z" stroke="#757575" stroke-width="1.5"/>
  <path d="M9.77175 3.1054L8.99967 5.42163L7.43983 6.40819L4.88763 5.77669C4.45976 5.67083 4.01304 5.85758 3.78783 6.23647L2.42363 8.53156C2.1778 8.94516 2.26134 9.47519 2.62248 9.7931L4.41261 11.369V13.4742L2.62304 15.0501C2.26198 15.368 2.17849 15.898 2.4243 16.3115L3.78855 18.6067C4.01376 18.9856 4.46049 19.1724 4.88835 19.0665L7.44056 18.435L8.91825 19.2637L9.62361 21.6997C9.74742 22.1273 10.139 22.4216 10.5842 22.4216H13.416C13.8611 22.4216 14.2527 22.1273 14.3765 21.6997L15.0819 19.2637L16.5588 18.435L19.111 19.0665C19.5389 19.1724 19.9856 18.9856 20.2108 18.6067L21.6008 16.2682C21.8349 15.8744 21.7714 15.3718 21.4468 15.0486L19.6406 13.2503L19.6413 11.5929L21.4475 9.79461C21.7722 9.47137 21.8357 8.96884 21.6016 8.57502L20.2115 6.23647C19.9863 5.85758 19.5396 5.67083 19.1117 5.77669L16.5595 6.40819L14.9997 5.42163L14.2276 3.1054C14.0915 2.69706 13.7094 2.42163 13.2789 2.42163H10.7205C10.29 2.42163 9.90786 2.69706 9.77175 3.1054Z" stroke="#757575" stroke-width="1.5" stroke-linecap="round" stroke-linejoin="round"/>
</svg>