<svg xmlns="http://www.w3.org/2000/svg" width="86" height="86" viewBox="0 0 86 86" fill="none">
  <path fill-rule="evenodd" clip-rule="evenodd" d="M43 86C19.2518 86 0 66.7484 0 43C0 19.2518 19.2518 0 43 0C66.7484 0 86 19.2518 86 43C86 66.7484 66.7484 86 43 86ZM60.758 34.5924L64.35 32.8329L60.8312 25.6484L57.2388 27.4079C49.4156 31.2397 43.3584 37.8148 39.3464 43.1744C37.9556 45.032 36.782 46.782 35.8384 48.2836C34.722 47.316 33.6208 46.5148 32.6502 45.8748C31.583 45.1712 29.4653 44.072 28.6643 43.656C28.632 43.6396 28.6019 43.6236 28.574 43.6092L24.8974 42.0336L21.7461 49.3868L25.4124 50.958C25.931 51.2276 27.4067 52 28.2465 52.554C29.9617 53.6848 31.9158 55.286 33.3214 57.294L37.208 62.8464L40.1884 56.764C40.422 56.3256 41.1064 55.0448 41.5792 54.2392C42.5268 52.6248 43.9328 50.3968 45.7504 47.9688C49.438 43.0428 54.5812 37.6176 60.758 34.5924Z" fill="#96E437"/>
</svg>