<svg xmlns="http://www.w3.org/2000/svg" width="28" height="28" viewBox="0 0 28 28" fill="none">
<path d="M22.6728 3.13657L22.6727 3.13662L22.6677 3.12877C22.5518 2.94855 22.3388 2.83337 22.1199 2.83337L4.08325 2.83338C3.71591 2.83338 3.42168 3.13428 3.42816 3.49095L3.42824 3.49095L3.42824 3.50004L3.42824 15.8434C3.42824 16.0307 3.49569 16.1937 3.62014 16.3182L8.75982 21.4578C8.89614 21.5851 9.06567 21.655 9.23992 21.655L13.9649 21.655C14.5237 21.655 15.0369 21.9423 15.347 22.3993L15.349 22.4022L16.994 24.8639L16.994 24.8638L16.9988 24.8713C17.1147 25.0515 17.3277 25.1667 17.5466 25.1667L19.2499 25.1667C19.6154 25.1667 19.9166 24.8656 19.9166 24.5L19.9166 23.3334C19.9166 22.4156 20.6654 21.6667 21.5833 21.6667L23.9166 21.6667C24.2821 21.6667 24.5833 21.3656 24.5833 21L24.5833 6.18336C24.5833 6.06033 24.5425 5.92624 24.4729 5.82497L24.4729 5.82499L24.4695 5.81989L22.6728 3.13657ZM16.0766 16.1684C15.4445 16.1684 14.9116 15.6585 14.9116 15.0034L14.9116 8.3417C14.9116 7.70964 15.4214 7.17669 16.0766 7.17669L17.4066 7.17669C18.0387 7.17669 18.5716 7.68653 18.5716 8.3417L18.5716 15.0034C18.5716 15.6354 18.0618 16.1684 17.4066 16.1684L16.0766 16.1684ZM9.41493 16.1684C8.78285 16.1684 8.24992 15.6585 8.24992 15.0034L8.24992 8.3417C8.24992 7.70962 8.75975 7.17669 9.41493 7.17669L10.7449 7.17669C11.377 7.17669 11.9099 7.68655 11.9099 8.3417L11.9099 15.0034C11.9099 15.6354 11.4001 16.1684 10.7449 16.1684L9.41493 16.1684Z" fill="#315215" stroke="#315215"/>
</svg>