<svg xmlns="http://www.w3.org/2000/svg" width="24" height="25" viewBox="0 0 24 25" fill="none">
  <path d="M22.9991 10.1311C23.0485 8.69978 22.7355 7.27914 22.0891 6.00113C21.6505 5.47673 21.0418 5.12284 20.3691 5.00113C17.5866 4.74865 14.7926 4.64517 11.9991 4.69113C9.2157 4.64308 6.43176 4.74323 3.65905 4.99113C3.11087 5.09084 2.60357 5.34797 2.19905 5.73113C1.29905 6.56113 1.19905 7.98113 1.09905 9.18113C0.953962 11.3387 0.953962 13.5036 1.09905 15.6611C1.12798 16.3365 1.22854 17.007 1.39905 17.6611C1.51963 18.1662 1.76357 18.6335 2.10905 19.0211C2.51632 19.4246 3.03543 19.6963 3.59905 19.8011C5.75497 20.0672 7.92727 20.1775 10.0991 20.1311C13.5991 20.1811 16.669 20.1311 20.299 19.8511C20.8765 19.7528 21.4102 19.4807 21.8291 19.0711C22.109 18.791 22.3181 18.4482 22.4391 18.0711C22.7967 16.9737 22.9723 15.8252 22.959 14.6711C22.9991 14.1111 22.9991 10.7311 22.9991 10.1311ZM9.73905 15.2711V9.08113L15.659 12.1911C13.9991 13.1111 11.809 14.1511 9.73905 15.2711Z" fill="#0A0915"/>
</svg>